<svg width="217" height="217" viewBox="0 0 217 217" fill="none" xmlns="http://www.w3.org/2000/svg">
<circle cx="108.5" cy="108.5" r="108.5" fill="black"/>
<circle cx="108.5" cy="108.5" r="104.297" fill="#2D2D2D"/>
<path d="M108.034 176.913C105.13 176.913 102.229 175.81 100.019 173.6L43.3826 116.963C41.2415 114.822 40.0625 111.976 40.0625 108.949C40.0625 105.922 41.2415 103.075 43.3826 100.934L100.019 44.2973C104.298 40.0152 111.774 40.0188 116.048 44.2973L172.685 100.934C177.105 105.354 177.105 112.544 172.685 116.963L116.048 173.6C113.839 175.81 110.938 176.913 108.034 176.913ZM108.034 46.9085C106.591 46.9085 105.235 47.4691 104.215 48.4926L47.5779 105.129C46.558 106.149 45.9938 107.506 45.9938 108.949C45.9938 110.392 46.5544 111.748 47.5779 112.768L104.215 169.405C106.32 171.51 109.748 171.51 111.857 169.405L168.494 112.768C170.599 110.663 170.599 107.234 168.494 105.126L111.857 48.4926C110.837 47.4727 109.481 46.9085 108.038 46.9085H108.034Z" fill="white"/>
<path d="M108.034 154.529C133.208 154.529 153.615 134.122 153.615 108.949C153.615 83.7751 133.208 63.3679 108.034 63.3679C82.8608 63.3679 62.4536 83.7751 62.4536 108.949C62.4536 134.122 82.8608 154.529 108.034 154.529Z" fill="white"/>
<path d="M74.0557 78.554C73.7664 78.7566 73.4879 78.9736 73.2275 79.2303L47.7915 104.666C45.4263 107.032 45.4263 110.862 47.7915 113.227L73.2275 138.663C73.4843 138.92 73.7664 139.137 74.0557 139.339C66.8152 131.27 62.3775 120.641 62.3775 108.945C62.3775 97.2485 66.8188 86.6228 74.0557 78.554Z" fill="#5C2E91"/>
<path d="M138.456 75.0569C138.254 74.7676 138.037 74.4855 137.78 74.2287L112.344 48.7928C109.979 46.4275 106.148 46.4275 103.783 48.7928L78.3472 74.2287C78.0904 74.4855 77.8734 74.7676 77.6709 75.0569C85.7397 67.82 96.369 63.3788 108.062 63.3788C119.754 63.3788 130.387 67.82 138.456 75.0569Z" fill="#F5821F"/>
<path d="M77.6433 142.819C77.8458 143.108 78.0628 143.39 78.3196 143.647L103.756 169.083C106.121 171.448 109.951 171.448 112.316 169.083L137.752 143.647C138.009 143.39 138.226 143.108 138.428 142.819C130.36 150.056 119.73 154.497 108.034 154.497C96.3378 154.497 85.7084 150.056 77.6396 142.819H77.6433Z" fill="#EF3C76"/>
<path d="M147.629 131.466C146.009 134.29 144.1 136.93 141.94 139.339C142.23 139.137 142.512 138.92 142.769 138.663L152.516 128.916C152.266 129.133 152.016 129.346 151.76 129.556C150.501 130.609 149.087 131.231 147.629 131.462V131.466Z" fill="white"/>
<path d="M168.201 104.666L142.765 79.2299C142.508 78.9731 142.226 78.7561 141.937 78.5536C149.174 86.6224 153.615 97.2517 153.615 108.944C153.615 111.675 153.369 114.344 152.906 116.937C153.152 117.151 153.42 117.339 153.735 117.476C155.883 118.731 157.641 120.369 158.816 122.59C158.773 122.641 158.729 122.691 158.686 122.742L168.201 113.226C170.566 110.861 170.566 107.031 168.201 104.666Z" fill="#00B6BD"/>
<path d="M151.709 115.711C143.973 108.022 136.262 100.311 128.522 92.6261C118.211 82.3873 102.779 81.7761 91.6723 91.1432C85.014 96.7563 79.665 103.454 75.2056 110.908C74.5763 111.964 74.5727 112.644 75.4914 113.552C83.8458 121.816 92.1316 130.145 100.482 138.409C104.479 142.366 109.618 142.337 113.687 138.431C115.296 136.887 116.797 135.23 118.45 133.74C119.445 132.843 119.477 132.323 118.475 131.35C113.51 126.518 108.62 121.606 103.723 116.706C100.186 113.165 100.038 107.903 103.347 104.557C106.909 100.955 111.835 100.984 115.568 104.666C119.3 108.348 123 112.062 126.714 115.762C131.025 120.055 135.315 124.377 139.658 128.637C141.994 130.93 144.888 131.903 147.626 131.469C150.165 127.039 151.98 122.149 152.906 116.944C152.472 116.568 152.107 116.116 151.705 115.715L151.709 115.711Z" fill="#7251A0"/>
<path d="M158.685 122.746L152.512 128.92C154.714 127.024 156.797 124.974 158.685 122.746Z" fill="#7251A0"/>
<path d="M153.735 117.48C153.424 117.343 153.157 117.155 152.907 116.941C151.978 122.142 150.162 127.035 147.627 131.466C149.084 131.234 150.499 130.612 151.757 129.56C152.01 129.35 152.26 129.133 152.513 128.92L158.687 122.746C158.73 122.695 158.773 122.645 158.817 122.594C157.641 120.373 155.884 118.735 153.735 117.48Z" fill="#7251A0"/>
<path d="M137.823 173.769V168.145H140.042C140.467 168.145 140.829 168.221 141.13 168.373C141.432 168.523 141.661 168.736 141.819 169.012C141.978 169.287 142.058 169.61 142.058 169.982C142.058 170.355 141.977 170.676 141.816 170.946C141.655 171.213 141.422 171.418 141.116 171.561C140.812 171.704 140.444 171.775 140.012 171.775H138.526V170.819H139.82C140.047 170.819 140.235 170.788 140.385 170.726C140.535 170.664 140.647 170.57 140.72 170.446C140.795 170.321 140.833 170.167 140.833 169.982C140.833 169.795 140.795 169.638 140.72 169.509C140.647 169.381 140.535 169.284 140.383 169.218C140.232 169.151 140.043 169.117 139.814 169.117H139.012V173.769H137.823ZM140.86 171.209L142.258 173.769H140.946L139.578 171.209H140.86Z" fill="white"/>
<path fill-rule="evenodd" clip-rule="evenodd" d="M139.879 175.6C142.408 175.6 144.458 173.55 144.458 171.021C144.458 168.493 142.408 166.443 139.879 166.443C137.35 166.443 135.3 168.493 135.3 171.021C135.3 173.55 137.35 175.6 139.879 175.6ZM139.879 176.821C143.082 176.821 145.679 174.224 145.679 171.021C145.679 167.818 143.082 165.222 139.879 165.222C136.676 165.222 134.079 167.818 134.079 171.021C134.079 174.224 136.676 176.821 139.879 176.821Z" fill="white"/>
</svg>
